<svg width="500" height="500" viewBox="0 0 500 500" fill="none" xmlns="http://www.w3.org/2000/svg">
<path fill-rule="evenodd" clip-rule="evenodd" d="M250 0C111.929 0 0 111.929 0 250C0 316.48 25.9489 376.899 68.2707 421.682C74.1726 411.454 79.6694 400.014 84.7804 387.248C102.744 342.38 115.693 281.732 124.675 201.263C124.935 191.672 125.435 181.493 126.191 170.707L146.142 172.105C146.126 172.333 146.11 172.56 146.094 172.787L147.686 172.937C146.729 183.099 145.717 192.994 144.647 202.628C143.547 245.412 147.438 274.278 153.729 292.192C157.568 303.124 161.959 308.992 165.681 311.808C168.981 314.305 172.224 314.807 175.959 313.751C180.156 312.565 185.402 309.219 191.094 302.938C196.705 296.747 202.265 288.228 207.185 277.743C209.889 271.983 212.367 265.698 214.54 258.978C215.693 242.886 218.935 225.038 223.749 205.842C223.84 203.36 223.887 200.857 223.887 198.337H225.692L225.765 198.063L226.791 198.337L243.887 198.337C243.887 199.862 243.872 201.382 243.841 202.895L245.087 203.228C244.59 205.087 244.109 206.926 243.645 208.745C242.745 228.095 239.38 246.399 234.337 262.708C233.67 274.08 234.243 283.953 236.116 292.27C238.367 302.27 242.387 309.523 247.95 314.59C253.5 319.646 261.383 323.254 272.657 324.567L272.64 324.715C318.357 324.577 346.941 321.614 363.432 317.034C371.972 314.662 376.027 312.179 377.708 310.501C378.74 309.472 378.682 309.129 378.486 308.304C378.074 306.579 376.483 303.586 372.534 299.298C368.739 295.178 363.512 290.65 357.176 285.789C346.917 277.919 334.624 269.82 322.285 261.691L322.284 261.69L322.283 261.689L322.283 261.689L322.266 261.678L322.26 261.674C319.297 259.722 316.332 257.768 313.391 255.815C298.709 246.064 284.084 235.99 275.568 226.908C271.544 222.618 267.056 216.702 266.602 209.741C266.347 205.83 267.4 202.008 269.789 198.706C272.039 195.597 275.124 193.421 278.292 191.846C284.47 188.774 293.107 186.95 303.829 185.894C314.779 184.816 328.84 184.462 346.472 184.881C380.423 185.688 428.372 189.383 494.304 196.689C469.878 84.2308 369.775 0 250 0ZM497.869 217.211C429.151 209.499 380.066 205.685 345.997 204.876C328.79 204.467 315.618 204.83 305.789 205.798C295.856 206.776 290.184 208.301 287.303 209.702C287.822 210.502 288.695 211.669 290.157 213.227C296.774 220.284 309.264 229.065 324.456 239.155C327.241 241.004 330.102 242.889 333.001 244.798L333.001 244.798L333.001 244.798L333.002 244.799L333.002 244.799C345.382 252.953 358.459 261.567 369.349 269.921C376.098 275.098 382.34 280.422 387.246 285.75C391.998 290.91 396.34 296.961 397.939 303.66C399.753 311.26 397.786 318.722 391.834 324.66C386.531 329.95 378.528 333.598 368.784 336.305C349.105 341.77 317.207 344.72 269.282 344.72V344.303C255.276 342.503 243.541 337.629 234.481 329.375C226.153 321.789 220.728 311.934 217.588 300.591C213.953 306.51 210.039 311.817 205.914 316.368C198.766 324.256 190.475 330.432 181.398 332.997C171.86 335.693 162.095 334.175 153.613 327.757C145.552 321.658 139.388 311.716 134.859 298.819C133.861 295.978 132.926 292.946 132.058 289.718C124.388 330.994 114.936 365.738 103.348 394.682C97.2108 410.01 90.4494 423.771 83.0041 436.047C127.273 475.809 185.811 500 250 500C388.071 500 500 388.071 500 250C500 238.886 499.275 227.941 497.869 217.211ZM150.34 141.8V146H181.44V141.8H179.14C176.873 141.8 174.94 141.4 173.34 140.6C171.74 139.733 170.94 137.733 170.94 134.6V79.6H180.64C183.64 79.6 185.707 80.4333 186.84 82.1C187.973 83.7 188.673 85.6 188.94 87.8L189.44 92.1H194.64L194.14 74.6H137.84L137.34 92.1H142.54L143.04 87.8C143.307 85.6 144.007 83.7 145.14 82.1C146.273 80.4333 148.307 79.6 151.24 79.6H160.84V135.1C160.84 138.033 160.007 139.9 158.34 140.7C156.74 141.433 154.84 141.8 152.64 141.8H150.34ZM223.468 141.8V146H250.368V141.8H250.068C247.868 141.8 245.935 141.433 244.268 140.7C242.668 139.9 241.868 138.033 241.868 135.1V114C241.868 109.067 242.835 105.133 244.768 102.2C246.768 99.2667 249.835 97.8 253.968 97.8C258.035 97.8 260.868 99 262.468 101.4C264.135 103.8 264.968 107.167 264.968 111.5V146H282.368V141.8H282.068C279.801 141.8 277.935 141.4 276.468 140.6C275.068 139.733 274.368 137.733 274.368 134.6V111C274.368 104.133 272.835 99.1667 269.768 96.1C266.768 92.9667 262.401 91.4 256.668 91.4C249.935 91.4 245.035 94.4333 241.968 100.5H241.468L241.568 99.1C241.635 98.1667 241.701 97.0667 241.768 95.8C241.835 94.4667 241.868 93.2 241.868 92V70H223.468V74.2H224.268C226.468 74.2 228.368 74.6 229.968 75.4C231.635 76.2 232.468 78.0667 232.468 81V134.6C232.468 137.733 231.668 139.733 230.068 140.6C228.468 141.4 226.535 141.8 224.268 141.8H223.468ZM321.745 139.8C325.878 144.6 331.578 147 338.845 147C342.845 147 346.145 146.467 348.745 145.4C351.345 144.267 353.278 142.933 354.545 141.4C355.811 139.867 356.445 138.433 356.445 137.1C356.445 136.233 356.245 135.5 355.845 134.9C355.445 134.3 355.011 133.9 354.545 133.7C353.345 135.5 351.511 137.133 349.045 138.6C346.645 140 343.711 140.7 340.245 140.7C335.445 140.7 331.778 139.067 329.245 135.8C326.778 132.467 325.478 127.167 325.345 119.9H358.645V115.3C358.645 107.367 356.778 101.4 353.045 97.4C349.378 93.4 344.311 91.4 337.845 91.4C330.778 91.4 325.311 93.7667 321.445 98.5C317.578 103.233 315.645 110.267 315.645 119.6C315.645 128.267 317.678 135 321.745 139.8ZM346.045 101.7C347.711 104.9 348.545 109.167 348.545 114.5H325.545C325.878 108.767 327.045 104.4 329.045 101.4C331.111 98.3333 333.978 96.8 337.645 96.8C341.645 96.8 344.445 98.4333 346.045 101.7ZM117.9 432V427.8H119.2C121.466 427.8 123.4 427.4 125 426.6C126.6 425.733 127.4 423.733 127.4 420.6V372C127.4 368.867 126.6 366.9 125 366.1C123.4 365.233 121.466 364.8 119.2 364.8H117.9V360.6H147V364.8H145.7C143.433 364.8 141.5 365.233 139.9 366.1C138.3 366.9 137.5 368.867 137.5 372V420.6C137.5 423.733 138.3 425.733 139.9 426.6C141.5 427.4 143.433 427.8 145.7 427.8H147V432H117.9ZM178.618 432V427.8H179.418C181.685 427.8 183.618 427.4 185.218 426.6C186.818 425.733 187.618 423.733 187.618 420.6V389.4C187.618 386.467 186.818 384.6 185.218 383.8C183.685 383 181.818 382.6 179.618 382.6H179.118V378.4H195.318L196.618 386.5H197.118C199.185 382.767 201.485 380.333 204.018 379.2C206.618 378 209.518 377.4 212.718 377.4C217.985 377.4 222.085 378.967 225.018 382.1C228.018 385.167 229.518 390.133 229.518 397V420.6C229.518 423.733 230.185 425.733 231.518 426.6C232.918 427.4 234.752 427.8 237.018 427.8H237.518V432H220.118V397.5C220.118 393.167 219.285 389.8 217.618 387.4C216.018 385 213.185 383.8 209.118 383.8C206.118 383.8 203.718 384.567 201.918 386.1C200.185 387.567 198.918 389.533 198.118 392C197.385 394.467 197.018 397.133 197.018 400V421.1C197.018 424.033 197.785 425.9 199.318 426.7C200.918 427.433 202.818 427.8 205.018 427.8H205.518V432H178.618ZM267.971 432V427.8H269.271C271.538 427.8 273.471 427.4 275.071 426.6C276.671 425.733 277.471 423.733 277.471 420.6V383.1H268.371V378.4H277.471V373.4C277.471 367.467 279.038 362.933 282.171 359.8C285.371 356.6 289.705 355 295.171 355C300.371 355 304.005 355.667 306.071 357C308.138 358.267 309.171 359.933 309.171 362C309.171 363.8 308.405 365.2 306.871 366.2C305.338 367.133 303.371 367.6 300.971 367.6C300.971 365.6 300.505 363.767 299.571 362.1C298.638 360.433 296.905 359.6 294.371 359.6C291.505 359.6 289.538 360.7 288.471 362.9C287.405 365.1 286.871 368.3 286.871 372.5V378.4H300.971V383.1H286.871V420.6C286.871 423.733 287.671 425.733 289.271 426.6C290.871 427.4 292.805 427.8 295.071 427.8H298.871V432H267.971ZM355.886 433C348.686 433 343.019 430.7 338.886 426.1C334.752 421.5 332.686 414.5 332.686 405.1C332.686 395.767 334.652 388.833 338.586 384.3C342.586 379.7 348.452 377.4 356.186 377.4C363.386 377.4 369.052 379.7 373.186 384.3C377.319 388.833 379.386 395.767 379.386 405.1C379.386 414.5 377.386 421.5 373.386 426.1C369.452 430.7 363.619 433 355.886 433ZM356.086 427.8C361.086 427.8 364.586 425.9 366.586 422.1C368.652 418.233 369.686 412.567 369.686 405.1C369.686 397.633 368.652 392.033 366.586 388.3C364.519 384.567 360.986 382.7 355.986 382.7C350.986 382.7 347.452 384.567 345.386 388.3C343.386 392.033 342.386 397.633 342.386 405.1C342.386 412.567 343.419 418.233 345.486 422.1C347.552 425.9 351.086 427.8 356.086 427.8Z" fill="black"/>
</svg>
